<svg width="61" height="52" viewBox="0 0 61 52" fill="none" xmlns="http://www.w3.org/2000/svg">
<path d="M26.3933 37.0023C26.3933 39.0251 26.3902 40.9393 26.7229 42.9351C26.9127 44.0742 27.3203 45.2646 27.3203 46.4165C27.3203 47.195 27.4965 47.7556 26.5375 47.7556C25.4684 47.7556 24.4844 47.4479 23.4269 47.3951C21.9638 47.3219 20.4831 47.3848 19.0184 47.3848C16.4709 47.3848 13.9233 47.3848 11.3758 47.3848C9.85821 47.3848 7.44958 47.8208 6.22571 46.6843C3.77365 44.4074 2.29108 41.3078 2.29108 37.8881C2.29108 33.1766 2.18059 28.6841 3.54769 24.1271C4.40104 21.2827 5.27119 18.4436 6.36992 15.6811C7.15366 13.7105 8.04331 11.4888 9.33634 9.78943C11.6456 6.75441 14.279 4.39244 17.8236 2.92957C22.0578 1.18211 26.9208 2.49975 31.1725 3.44457C35.2506 4.35082 39.2974 4.82858 43.1206 6.5552C44.8799 7.3497 46.6442 8.55345 48.0441 9.89243C49.5557 11.3383 51.3765 12.4126 52.8645 13.8683C54.1639 15.1394 55.4554 16.2635 56.6137 17.6793C57.7288 19.0422 58.1306 20.5102 58.6532 22.1701C59.5496 25.0175 59.2046 28.7823 57.9116 31.4402C56.1442 35.0732 53.1463 38.0605 51.0105 41.4931C49.7897 43.4551 48.117 46.0899 46.0459 47.2406C44.8452 47.9076 43.8643 48.6064 42.5232 49.0534C41.3269 49.4521 39.8565 50.1658 38.5886 50.1658C37.2997 50.1658 36.2034 49.795 34.9218 49.795" stroke="black" stroke-width="3" stroke-linecap="round"/>
<path d="M26.3933 17.535C26.3933 17.4647 25.5827 20.1306 26.2079 20.1306C26.8825 20.1306 28.1588 17.948 28.3915 17.3496C28.5496 16.9431 27.7098 17.3165 27.5984 17.4526C27.2352 17.8965 27.2075 18.3449 26.9907 18.8328C26.5762 19.7653 27.8438 19.0835 28.0619 18.6474" stroke="black" stroke-width="3" stroke-linecap="round"/>
<path d="M36.7758 19.0183C35.8785 20.0277 37.147 21.1399 38.259 20.6457C39.5487 20.0725 37.7287 19.4411 37.7028 19.3891" stroke="black" stroke-width="3" stroke-linecap="round"/>
<path d="M32.3261 25.8782C31.4782 26.2772 30.0539 27.1016 30.297 28.1957C30.4934 29.0794 32.4531 29.7596 33.2531 29.3596C34.0621 28.9551 34.5224 27.3101 34.0874 26.5271C33.3948 25.2804 30.5615 25.7764 29.8335 26.7125C28.5594 28.3506 31.1557 28.2907 32.0995 27.9176C32.4581 27.7758 33.2531 27.2617 33.2531 26.8052C33.2531 26.3064 32.3267 26.3206 32.048 26.5374C31.7198 26.7927 31.3169 27.4066 31.224 27.8249C31.086 28.446 31.7123 28.3006 32.1407 28.2884C32.4787 28.2787 33.7696 28.0102 33.6136 27.4644C33.4535 26.9039 32.9274 27.7822 32.8823 27.9176" stroke="black" stroke-width="3" stroke-linecap="round"/>
<path d="M35.478 48.6826C35.478 45.4108 37.2677 43.3632 39.2272 40.8957C40.0107 39.909 41.4994 40.1098 42.5232 39.5979" stroke="black" stroke-width="3" stroke-linecap="round"/>
<path d="M8.577 26.9531C8.577 28.602 8.73626 30.3479 8.52839 31.9849C8.45763 32.5421 7.85414 35.0131 8.69854 35.2543C10.4352 35.7505 10.9734 31.3387 10.9835 30.4535C11.0054 28.529 10.7766 26.9013 10.3272 25.0328C10.14 24.2543 9.78178 22.9422 9.56148 24.3522C8.82674 29.0545 8.65167 35.4106 11.652 39.411C14.2096 42.8211 14.2135 38.2543 13.9977 36.3117C13.8184 34.6979 13.2237 33.1261 13.1712 31.4987C13.1384 30.48 12.7337 27.4531 12.7337 28.4724C12.7337 32.9937 15.6493 38.0903 18.3975 41.4894C19.5581 42.9248 19.7692 42.1394 19.1753 40.7358C18.2904 38.6442 17.048 36.7272 16.1854 34.6102C15.5072 32.9455 14.9557 31.0535 14.9214 29.2381C14.8938 27.7722 15.0448 28.8306 15.4684 29.6999C17.467 33.8024 18.3514 38.9152 21.7034 42.2672C22.6043 43.1681 22.449 41.7569 22.2625 41.1248C21.7338 39.3332 20.327 37.6665 19.0781 36.3482C18.7336 35.9846 16.3222 32.9277 16.0639 34.3914C15.8143 35.806 16.0827 37.3346 16.0031 38.7669C15.9442 39.8277 15.8723 41.1997 15.1402 42.0363C14.3774 42.9081 13.1716 42.7048 12.126 42.7048C11.4613 42.7048 7.51198 43.1991 8.82008 42.0363C9.72167 41.2349 11.061 40.8422 12.1746 40.4198C12.4115 40.33 14.7978 39.774 14.654 40.0795C14.3921 40.636 13.4405 40.9135 13.074 41.4894C12.5125 42.3717 14.5292 42.0485 14.9214 42.0485" stroke="black" stroke-width="3" stroke-linecap="round"/>
<path d="M43.5807 42.4859C44.5696 41.497 45.8784 41.265 46.9595 40.4076C48.1971 39.426 49.2707 38.5511 49.8036 37.0287C49.8865 36.7917 50.4557 34.6344 50.0102 34.6344C48.7784 34.6344 46.8606 38.0463 46.2181 38.8762C44.7958 40.7133 43.2117 42.4488 41.8548 44.3333C41.5315 44.7824 41.0387 45.286 40.7853 45.7675C40.7497 45.8351 40.6971 46.4394 40.7488 46.1808C41.1374 44.2377 42.2727 42.0471 44.237 41.5014C45.2173 41.2291 46.2706 41.2328 47.2512 40.9059C47.7907 40.7261 48.6539 39.8037 47.5186 40.128C46.3272 40.4684 44.7805 42.2637 44.0182 43.1909C43.398 43.9452 42.8715 44.6821 42.4382 45.5487C42.0877 46.2498 42.0231 45.7447 41.6603 46.0349C41.2505 46.3628 41.2221 46.8628 41.004 47.2989C40.9693 47.3683 40.0128 48.6119 39.9588 48.1254C39.9166 47.7461 40.7044 47.2057 40.9554 47.0802" stroke="black" stroke-width="3" stroke-linecap="round"/>
</svg>
